<?xml version="1.0" standalone="no"?>
<!DOCTYPE svg PUBLIC "-//W3C//DTD SVG 20010904//EN"
 "http://www.w3.org/TR/2001/REC-SVG-20010904/DTD/svg10.dtd">
<svg version="1.0" xmlns="http://www.w3.org/2000/svg"
 width="310.000000pt" height="258.000000pt" viewBox="0 0 310.000000 258.000000"
 preserveAspectRatio="xMidYMid meet">

<g transform="translate(0.000000,258.000000) scale(0.100000,-0.100000)"
fill="#000000" stroke="none">
<path d="M2428 1665 c-62 -9 -66 -11 -56 -29 8 -14 8 -21 0 -24 -6 -2 -106
-66 -222 -143 -209 -138 -213 -140 -234 -122 -11 10 -66 58 -121 108 -55 49
-110 98 -122 108 l-22 20 -108 -99 c-59 -54 -135 -124 -168 -156 l-60 -58
-113 80 c-62 44 -116 80 -121 80 -4 0 -16 -7 -27 -15 -18 -14 -17 -15 8 -4 25
11 34 6 139 -75 l112 -86 60 53 c227 198 273 237 279 237 4 0 67 -56 140 -125
73 -69 139 -125 146 -125 7 0 25 9 40 19 26 18 393 250 421 266 9 5 19 2 26
-9 12 -15 17 -11 45 39 17 30 30 59 28 63 -2 4 -33 3 -70 -3z"/>
<path d="M980 1110 c0 -146 1 -151 22 -159 25 -9 58 -3 58 10 0 5 -11 9 -24 9
-13 0 -27 7 -30 16 -3 9 -6 74 -6 145 0 79 -4 129 -10 129 -6 0 -10 -57 -10
-150z"/>
<path d="M430 1247 c0 -4 34 -89 93 -232 14 -33 32 -61 40 -63 9 -2 29 34 62
115 27 65 54 133 62 151 11 27 11 32 0 32 -8 0 -34 -53 -64 -127 -28 -71 -55
-128 -59 -128 -5 1 -31 57 -59 125 -27 68 -56 125 -62 128 -7 2 -13 2 -13 -1z"/>
<path d="M2130 1145 c0 -153 27 -195 126 -195 63 0 99 25 114 78 13 48 13 222
0 222 -6 0 -10 -33 -10 -77 -1 -144 -31 -203 -106 -203 -79 0 -104 47 -104
193 0 51 -4 87 -10 87 -6 0 -10 -42 -10 -105z"/>
<path d="M747 1150 c-31 -25 -51 -80 -42 -119 7 -32 49 -75 83 -86 32 -9 88
12 112 42 39 50 18 147 -37 172 -37 17 -88 13 -116 -9z m121 -22 c45 -49 36
-125 -19 -154 -57 -29 -119 15 -119 86 0 76 89 119 138 68z"/>
<path d="M1094 1123 c3 -27 5 -69 5 -94 1 -25 7 -54 15 -64 19 -26 78 -25 115
3 28 21 29 21 34 2 3 -11 11 -20 17 -20 8 0 10 8 6 23 -3 12 -6 61 -6 110 0
51 -4 87 -10 87 -6 0 -10 -30 -10 -71 0 -81 -9 -103 -50 -124 -38 -20 -46 -19
-70 5 -17 17 -20 33 -20 105 0 69 -3 85 -15 85 -12 0 -14 -10 -11 -47z"/>
<path d="M1360 1060 c0 -67 4 -110 10 -110 6 0 10 31 10 74 0 64 3 76 25 100
13 15 35 26 49 26 40 0 56 -34 56 -122 0 -45 4 -78 10 -78 6 0 10 30 10 69 0
60 3 74 26 100 31 37 77 42 94 12 5 -11 10 -56 10 -100 0 -68 3 -81 16 -81 14
0 15 13 12 96 -2 81 -6 98 -22 110 -31 22 -79 17 -106 -11 l-23 -24 -19 24
c-25 31 -75 33 -112 4 l-26 -20 0 20 c0 12 -4 21 -10 21 -6 0 -10 -43 -10
-110z"/>
<path d="M1780 1143 c-87 -79 -10 -227 100 -194 38 11 68 36 57 47 -3 4 -18
-3 -33 -15 -15 -11 -37 -21 -50 -21 -29 0 -84 46 -84 71 0 17 8 19 95 19 90 0
95 1 95 21 0 85 -114 131 -180 72z m105 5 c22 -10 55 -53 55 -73 0 -3 -38 -5
-85 -5 -76 0 -85 2 -85 18 0 26 48 67 82 71 4 1 19 -4 33 -11z"/>
<path d="M2450 1016 c0 -99 4 -157 11 -161 6 -4 12 -5 14 -3 4 4 8 238 6 296
-1 12 -7 22 -16 22 -13 0 -15 -24 -15 -154z"/>
<path d="M2505 1150 c-10 -11 -13 -20 -7 -20 6 0 14 5 17 10 9 14 67 12 86 -3
42 -32 51 -99 19 -140 -26 -33 -65 -42 -96 -22 -30 19 -40 19 -23 -1 22 -27
58 -36 95 -24 78 26 95 146 27 200 -34 27 -94 27 -118 0z"/>
</g>
</svg>
